<svg width="348" height="345" viewBox="0 0 348 345" fill="none" xmlns="http://www.w3.org/2000/svg">
<path d="M135.027 37.0703C154.072 -2.09726 206.264 -11.9776 239.471 18.085C249.186 26.8757 256.654 37.9878 264.225 48.6973C276.172 65.6035 287.306 77.6543 300.36 86.4424C313.167 95.0633 327.791 100.522 346.782 104.373C320.826 123.04 293.108 125.77 263.831 118.377C235.068 111.105 213.619 95.7029 203.632 70.2031C214.116 75.2332 231.71 83.8708 245.376 89.1797C248.921 90.5567 252.21 91.7133 255.048 92.5254C257.876 93.3347 260.294 93.8132 262.082 93.8105C262.974 93.8092 263.757 93.6886 264.364 93.3926C264.994 93.0858 265.432 92.5892 265.583 91.8945C265.728 91.2306 265.597 90.4494 265.251 89.5723C264.903 88.6882 264.316 87.657 263.484 86.4678L263.479 86.459C250.504 68.6743 242.695 57.1972 228.742 40.7129L227.372 39.1016C210.9 19.8231 186.342 17.6598 168.798 31.8066L167.968 32.4922C149.654 48.0089 147.235 75.5013 165.221 91.6895C168.985 95.0798 176.151 100.062 185.334 106.126C194.525 112.195 205.782 119.377 217.735 127.163C241.658 142.745 268.401 160.764 287.235 177.283C300.72 189.111 309.636 200.805 313.514 213.941C317.389 227.07 316.254 241.713 309.495 259.481L309.377 259.792L309.618 260.021C310.609 260.963 316.124 265.389 318.777 272.559C320.1 276.131 320.708 280.383 319.677 285.226C318.645 290.069 315.965 295.535 310.663 301.524C293.383 319.498 255.863 339.734 206.901 344.112C237.405 335.311 257.609 326.823 270.329 318.835C283.689 310.445 288.911 302.531 288.965 295.297C289.019 288.081 283.924 281.792 277.29 276.66C271.051 271.834 263.343 267.947 256.909 265.187L255.641 264.649C228.786 253.449 200.636 244.69 172.576 236.306C121.139 220.922 70.1294 205.769 38.832 160.056L38.4082 159.437L38 160.066C23.7343 182.055 18.5001 204.26 22.21 224.605C25.9205 244.954 38.5652 263.371 59.917 277.802C113.488 314.013 172.166 316.628 233.865 292.837L235.198 292.323L233.836 291.894C233.478 291.781 201.782 283.145 185.215 278.639L175.411 275.978C144.115 267.663 118.079 256.435 98.7988 244.902C80.4509 233.927 68.2909 222.717 63.4795 213.531C109.376 239.181 133.138 241.078 202.739 263.303C220.788 269.063 236.747 273.71 254.184 280.013L254.193 280.017L254.204 280.02C254.64 280.156 258.995 281.69 263.33 284.353C265.497 285.684 267.639 287.285 269.282 289.12C270.926 290.955 272.045 292.994 272.23 295.206C272.597 299.592 269.292 305.045 257.819 311.251C246.387 317.435 227.027 324.26 195.758 331.454C156.718 340.436 101.903 331.685 63.5703 310.624H63.5693C36.5443 295.771 17.5819 275.464 7.9043 252.042C-1.77174 228.623 -2.1822 202.05 7.96387 174.621C15.8391 153.331 32.5455 123.974 44.6318 103.818C44.8843 104.894 45.1181 105.982 45.374 107.149C45.6358 108.344 45.9204 109.616 46.2715 111.028L46.6465 112.491C60.7648 171.425 110.178 193.694 164.554 210.332C205.018 222.715 245.109 236.124 287.121 249.638L287.541 249.773L287.728 249.373C295.394 232.915 291.121 214.182 276.46 201.006H276.459C250.421 177.719 222.361 158.008 199.208 142.744C187.632 135.113 177.276 128.589 169.019 123.288C160.746 117.978 154.606 113.912 151.416 111.179L151.404 111.169C139.389 101.467 132.057 89.6183 129.343 76.8721C126.628 64.1244 128.525 50.4442 135.027 37.0703Z" stroke="white" stroke-opacity="0.16"/>
</svg>
