<svg width="167" height="38" viewBox="0 0 167 38" fill="none" xmlns="http://www.w3.org/2000/svg">
<path d="M5.0746 12.0649C6.58683 18.3625 11.8788 20.7464 17.7335 22.5329C22.0909 23.8627 26.4087 25.3028 30.9314 26.7535C31.7459 25.0098 31.2938 23.0234 29.731 21.6228C24.1296 16.627 17.6558 13.1642 16.2682 11.9785C13.6635 9.88114 13.0808 6.8477 14.4902 3.95687C16.557 -0.281861 22.2192 -1.34916 25.8204 1.9021C26.8719 2.8509 27.6799 4.04986 28.4936 5.1978C31.0622 8.82266 33.2713 10.3508 37.4698 11.1786C34.6313 13.2589 31.5962 13.5691 28.394 12.7627C25.2379 11.9669 22.8881 10.2652 21.8268 7.43114C24.0498 8.49102 29.7382 11.3283 28.3258 9.31514C26.8829 7.34282 26.0352 6.09557 24.4407 4.23336C22.6569 2.15144 19.9904 1.95065 18.1203 3.52979C16.1695 5.17804 15.9169 8.09192 17.8257 9.80519C19.4326 11.2486 26.9003 15.4421 30.9627 18.9953C33.8744 21.5421 34.8355 24.05 33.3743 27.8806C33.5818 28.0775 35.7939 29.8172 33.4895 32.4122C31.556 34.4184 27.2906 36.6781 21.7449 37.0441C36.0395 33.0566 30.3694 29.6584 27.5046 28.466C24.6159 27.2646 21.5873 26.3248 18.5662 25.4246C13.0315 23.7738 7.51902 22.1429 4.13667 17.2162C1.07601 21.9207 1.90289 26.6984 6.48154 29.7843C12.2326 33.6609 18.5316 33.9424 25.1614 31.393C25.1131 31.3778 19.0626 29.7346 18.8731 29.6847C12.1251 27.8969 7.64078 24.8551 6.71107 22.7971C11.7455 25.6278 14.2689 25.808 21.8457 28.2208C23.7874 28.8388 25.5081 29.3384 27.3868 30.0156C27.5859 30.078 34.5626 32.5508 21.0897 35.6419C16.872 36.6095 10.9565 35.6672 6.81884 33.4001C0.981383 30.2007 -1.3865 24.6445 0.806972 18.7311C1.67169 16.3999 3.52124 13.1733 4.82695 11.0074C4.90758 11.3251 4.96024 11.6337 5.0746 12.0649Z" fill="#1BC8AC"/>
<path d="M40.8072 29.9362C41.3444 32.4586 42.9557 33.8539 45.4265 33.8539C48.2196 33.8539 51.0126 33.8539 53.8057 33.8539C54.9336 33.8539 56.0079 34.0149 56.0079 35.4102C56.0079 36.7519 54.9873 37.0202 53.8593 37.0202C51.0126 37.0202 48.1658 37.0738 45.319 37.0202C41.5592 36.9129 38.2827 34.3369 37.6919 30.7412C37.3696 29.0239 37.4233 27.1456 37.6919 25.3747C38.2827 21.7254 41.3443 19.3641 45.1579 19.2568C47.199 19.2031 49.2401 19.2031 51.2275 19.2568C54.5576 19.3104 57.1358 21.7254 57.0821 24.7307C57.0284 27.7897 54.5576 29.9899 51.12 29.9899C47.7361 29.9899 44.3522 29.9899 40.8072 29.9899V29.9362ZM40.8072 26.6627C44.6208 26.6627 48.4344 26.77 52.248 26.6627C53.3759 26.6627 54.0742 25.643 53.9131 24.4623C53.8057 23.3354 53 22.6377 51.8183 22.5841C49.3475 22.5841 46.8767 22.4767 44.4059 22.5841C42.3111 22.6914 40.9146 24.355 40.7535 26.6627H40.8072Z" fill="#E6E6E6"/>
<path d="M62.6901 29.9362C63.2272 32.4586 64.8386 33.8539 67.3094 33.8539C70.1024 33.8539 72.8955 33.8539 75.6885 33.8539C76.8165 33.8539 77.8907 34.0149 77.8907 35.4102C77.8907 36.7519 76.8702 37.0202 75.7422 37.0202C72.8955 37.0202 70.0487 37.0738 67.202 37.0202C63.4421 36.9129 60.1656 34.3369 59.5747 30.7412C59.2525 29.0239 59.3062 27.1456 59.5747 25.3747C60.1656 21.7254 63.2272 19.3641 67.0408 19.2568C69.0819 19.2031 71.1229 19.2031 73.1103 19.2568C76.4405 19.3104 79.0187 21.7254 78.965 24.7307C78.9113 27.7897 76.4405 29.9899 73.0029 29.9899C69.619 29.9899 66.2351 29.9899 62.6901 29.9899V29.9362ZM62.6901 26.6627C66.5037 26.6627 70.3173 26.77 74.1308 26.6627C75.2589 26.6627 75.9571 25.643 75.796 24.4623C75.6885 23.3354 74.8828 22.6377 73.7012 22.5841C71.2304 22.5841 68.7596 22.4767 66.2889 22.5841C64.1941 22.6914 62.7975 24.355 62.6364 26.6627H62.6901Z" fill="#E6E6E6"/>
<path d="M90.3669 27.2403C92.6227 29.2796 94.6638 31.2115 96.7586 33.0899C97.1346 33.4118 97.4569 33.7875 97.8329 34.0559C98.6923 34.8071 99.0683 35.6658 98.2626 36.5244C97.4031 37.4368 96.49 37.0074 95.6844 36.3098C95.6844 36.3098 90.4593 31.5783 87.8218 29.2389L84.4585 31.6237C84.4585 31.6237 84.4585 34.3117 84.4585 35.3314C84.4585 36.3511 83.9751 37.0074 82.9008 37.0074C81.8265 37.0074 81.2894 36.3934 81.2894 35.3975C81.2894 28.7429 81.2894 22.0883 81.2357 15.4338C81.2357 14.4141 81.7191 13.6628 82.9008 13.6628C84.0825 13.6628 84.4585 14.5215 84.4585 15.5411C84.4585 18.8684 84.4585 22.1957 84.4585 25.523C84.4585 26.0596 84.4585 26.6499 84.4585 27.6159C87.7094 25.5644 93.8582 20.9614 93.8582 20.9614C94.9324 20.21 96.12 18.4977 97.618 20.1027C98.4417 21.0409 97.9403 21.82 95.6307 23.4836C93.9118 24.718 92.2468 25.9523 90.3131 27.3476L90.3669 27.2403Z" fill="#E6E6E6"/>
<path d="M111.199 37.0441C105.184 36.883 100.671 32.5361 100.994 27.1695C101.208 23.6276 104.001 20.4076 107.493 19.6563C108.513 19.4416 109.587 19.4953 109.695 20.6222C109.765 21.3592 109.495 22.1697 108.513 22.5006C105.291 23.9495 103.787 25.9352 104.163 28.4574C104.592 31.3554 107.117 33.5021 110.393 33.8777C115.228 34.4144 119.149 30.7114 118.128 26.6328C117.644 24.6472 116.302 23.4129 114.422 22.7152C113.348 22.2859 112.434 21.7492 112.971 20.5149C113.509 19.2269 114.637 19.6026 115.657 19.9246C119.149 21.1589 121.511 24.4861 121.511 27.9744C121.511 31.6774 118.934 35.0584 115.066 36.2927C114.529 36.4794 113.196 37.0441 111.199 37.0441Z" fill="#E6E6E6"/>
<path d="M140.961 21.0316C140.961 19.0996 140.961 17.4897 140.961 15.8797C140.961 14.7527 141.176 13.7867 142.573 13.7867C143.97 13.7867 144.185 14.8064 144.185 15.8797C144.185 19.7436 144.185 23.6076 144.185 27.4716C144.185 32.4088 141.714 35.4678 136.719 36.702C132.314 37.7754 127.695 36.2727 125.331 32.8918C121.84 28.0082 124.525 21.2999 130.595 19.7973C134.087 18.9386 137.416 19.3143 140.908 21.0853L140.961 21.0316ZM141.23 26.9348C141.23 25.4859 139.78 23.2855 137.363 22.8026C135.429 22.4269 133.335 22.3732 131.401 22.6952C128.984 23.0709 127.318 25.1639 127.104 27.3641C126.836 29.8865 127.91 31.8721 130.219 32.9991C133.066 34.448 135.967 34.2871 138.652 32.5698C140.371 31.4965 141.23 29.8865 141.23 26.9348Z" fill="#E6E6E6"/>
<path d="M149.842 29.9934C150.54 32.5157 152.044 33.8037 154.461 33.8574C157.147 33.911 159.833 33.8574 162.518 33.8574C163.753 33.8574 165.311 33.5891 165.258 35.4674C165.258 37.131 163.753 37.0236 162.572 37.0236C160.315 37.0236 158.06 36.9163 155.857 37.0236C150.54 37.3457 145.652 33.8574 146.565 26.6125C147.21 21.6216 150.11 19.2603 155.267 19.2066C157.04 19.2066 158.758 19.1529 160.53 19.2066C163.914 19.3139 166.385 21.6752 166.278 24.6805C166.224 27.6858 163.861 29.8324 160.423 29.8861C157.469 29.8861 154.515 29.8861 151.561 29.8861C151.023 29.8861 150.486 29.8861 149.842 29.9397V29.9934ZM150.003 26.6661C153.763 26.6661 157.522 26.7198 161.282 26.6661C162.41 26.6661 163.108 25.7002 163.055 24.5731C163.001 23.4462 162.303 22.6412 161.068 22.6412C158.489 22.5876 155.911 22.4802 153.333 22.6412C151.238 22.8022 149.949 24.5195 150.003 26.7198V26.6661Z" fill="#E6E6E6"/>
</svg>
