<?xml version="1.0" encoding="UTF-8" standalone="no"?>
<!-- Created with Inkscape (http://www.inkscape.org/) -->

<svg
   version="1.1"
   id="svg1"
   width="128"
   height="60.022293"
   viewBox="0 0 60.722412 60.022293"
   sodipodi:docname="Logo - Planche SEEKODE Monogramme.eps"
   xmlns:inkscape="http://www.inkscape.org/namespaces/inkscape"
   xmlns:sodipodi="http://sodipodi.sourceforge.net/DTD/sodipodi-0.dtd"
   xmlns="http://www.w3.org/2000/svg"
   xmlns:svg="http://www.w3.org/2000/svg">
  <defs
     id="defs1" />
  <sodipodi:namedview
     id="namedview1"
     pagecolor="#ffffff"
     bordercolor="#000000"
     borderopacity="0.25"
     inkscape:showpageshadow="2"
     inkscape:pageopacity="0.0"
     inkscape:pagecheckerboard="0"
     inkscape:deskcolor="#d1d1d1" />
  <g
     id="g1"
     inkscape:groupmode="layer"
     inkscape:label="1"
     transform="translate(-386.5278,-153.36586)">
    <g
       id="group-R5">
      <path
         id="path65"
         d="m 394.75154,172.91449 c 2.45066,10.204 11.02666,14.06667 20.51466,16.96133 7.06134,2.15467 14.05867,4.488 21.388,6.83867 1.32,-2.82533 0.58724,-6.044 -1.94533,-8.31333 -9.07742,-8.09458 -19.56861,-13.70537 -21.81733,-15.62667 -4.22115,-3.39827 -5.16534,-8.31333 -2.88134,-12.99733 3.34934,-6.868 12.52534,-8.59734 18.36134,-3.32934 1.704,1.53734 3.01333,3.48 4.332,5.34 4.16266,5.87334 7.74266,8.34934 14.54666,9.69067 -4.6,3.37067 -9.51866,3.87333 -14.708,2.56667 -5.11466,-1.28934 -8.92266,-4.04667 -10.64266,-8.63867 3.60266,1.71733 12.82103,6.31458 10.53212,3.05265 -2.33828,-3.19575 -3.71212,-5.21665 -6.29612,-8.23398 -2.89067,-3.37334 -7.212,-3.69867 -10.24267,-1.14 -3.16133,2.67066 -3.57067,7.392 -0.47733,10.168 2.6041,2.33868 14.70599,9.13354 21.28933,14.89066 4.71867,4.12667 6.27617,8.1902 3.90817,14.39686 0.3363,0.31903 3.92114,3.13778 0.18675,7.34255 -3.13331,3.25055 -10.04567,6.91192 -19.03292,7.50493 23.16533,-6.46092 13.97667,-11.967 9.334,-13.899 -4.68133,-1.94667 -9.58933,-3.46934 -14.48533,-4.928 -8.96934,-2.67467 -17.90267,-5.31734 -23.384,-13.3 -4.96,7.62266 -3.62,15.364 3.8,20.364 9.32,6.28133 19.528,6.73733 30.272,2.60666 -0.0782,-0.0246 -9.88352,-2.68714 -10.19067,-2.768 -10.93562,-2.89669 -18.20267,-7.82533 -19.70933,-11.16 8.15866,4.58667 12.248,4.87867 24.52666,8.788 3.14667,1.00134 5.93513,1.81087 8.97971,2.90816 0.32264,0.10104 11.62887,4.10782 -10.20476,9.11621 -6.83518,1.56791 -16.42161,0.041 -23.12695,-3.63237 -9.46,-5.184 -13.29733,-14.18666 -9.74266,-23.768 1.40133,-3.77733 4.39866,-9.00533 6.51466,-12.51466 0.13067,0.51466 0.216,1.01466 0.40134,1.71333"
         style="fill:#22a791;fill-opacity:1;fill-rule:nonzero;stroke:none;stroke-width:0.133333"
         inkscape:label="path65"
         sodipodi:nodetypes="ccccccccccccccccccccccccccccscscc" />
    </g>
  </g>
</svg>
