<svg width="177" height="28" viewBox="0 0 177 28" fill="none" xmlns="http://www.w3.org/2000/svg">
<path d="M157.518 19.4144C158.345 22.4061 160.128 23.9338 162.992 23.9975C166.175 24.0611 169.358 23.9975 172.54 23.9975C174.004 23.9975 175.85 23.6792 175.787 25.9071C175.787 27.8803 174.004 27.753 172.604 27.753C169.93 27.753 167.257 27.6257 164.647 27.753C158.345 28.135 152.553 23.9975 153.635 15.4042C154.399 9.48438 157.836 6.68362 163.947 6.61997C166.048 6.61997 168.084 6.55631 170.185 6.61997C174.195 6.74727 177.123 9.54805 176.996 13.1127C176.932 16.6773 174.132 19.2234 170.058 19.2871C166.557 19.2871 163.056 19.2871 159.555 19.2871C158.918 19.2871 158.282 19.2871 157.518 19.3507V19.4144ZM157.709 15.4678C162.165 15.4678 166.62 15.5315 171.076 15.4678C172.413 15.4678 173.24 14.3221 173.177 12.9853C173.113 11.6486 172.286 10.6938 170.822 10.6938C167.766 10.6302 164.711 10.5028 161.655 10.6938C159.173 10.8848 157.645 12.9217 157.709 15.5315V15.4678Z" fill="#292F36"/>
<path d="M55.672 19.3508C56.3085 22.3426 58.2181 23.9976 61.1462 23.9976C64.4562 23.9976 67.7662 23.9976 71.0762 23.9976C72.4129 23.9976 73.686 24.1885 73.686 25.8435C73.686 27.4349 72.4766 27.7532 71.1398 27.7532C67.7662 27.7532 64.3925 27.8168 61.0189 27.7532C56.5631 27.6259 52.6802 24.5705 51.98 20.3056C51.5981 18.2687 51.6618 16.0408 51.98 13.9403C52.6802 9.6118 56.3085 6.81103 60.8279 6.68373C63.2468 6.62007 65.6656 6.62007 68.0208 6.68373C71.9673 6.74738 75.0227 9.61179 74.9591 13.1764C74.8954 16.8047 71.9673 19.4145 67.8935 19.4145C63.8833 19.4145 59.8731 19.4145 55.672 19.4145V19.3508ZM55.672 15.468C60.1914 15.468 64.7108 15.5953 69.2302 15.468C70.567 15.468 71.3945 14.2585 71.2035 12.8581C71.0762 11.5214 70.1214 10.6939 68.721 10.6303C65.7929 10.6303 62.8648 10.5029 59.9368 10.6303C57.4543 10.7576 55.7993 12.7308 55.6083 15.468H55.672Z" fill="#292F36"/>
<path d="M29.5017 19.3508C30.1383 22.3426 32.0479 23.9976 34.976 23.9976C38.286 23.9976 41.596 23.9976 44.906 23.9976C46.2427 23.9976 47.5158 24.1885 47.5158 25.8435C47.5158 27.4349 46.3063 27.7532 44.9696 27.7532C41.596 27.7532 38.2223 27.8168 34.8486 27.7532C30.3929 27.6259 26.51 24.5705 25.8098 20.3056C25.4279 18.2687 25.4915 16.0408 25.8098 13.9403C26.51 9.6118 30.1383 6.81103 34.6577 6.68373C37.0765 6.62007 39.4954 6.62007 41.8506 6.68373C45.7971 6.74738 48.8525 9.61179 48.7888 13.1764C48.7252 16.8047 45.7971 19.4145 41.7233 19.4145C37.7131 19.4145 33.7029 19.4145 29.5017 19.4145V19.3508ZM29.5017 15.468C34.0212 15.468 38.5406 15.5953 43.06 15.468C44.3967 15.468 45.2242 14.2585 45.0333 12.8581C44.906 11.5214 43.9512 10.6939 42.5508 10.6303C39.6227 10.6303 36.6946 10.5029 33.7665 10.6303C31.284 10.7576 29.629 12.7308 29.4381 15.468H29.5017Z" fill="#292F36"/>
<path d="M147.333 8.65699C147.333 6.36545 147.333 4.45583 147.333 2.54622C147.333 1.20949 147.588 0.0637207 149.243 0.0637207C150.898 0.0637207 151.153 1.27314 151.153 2.54622C151.153 7.1293 151.153 11.7124 151.153 16.2955C151.153 22.1516 148.225 25.7799 142.305 27.2439C137.085 28.517 131.611 26.7347 128.81 22.7245C124.673 16.932 127.855 8.97525 135.048 7.19294C139.186 6.17448 143.132 6.62005 147.27 8.72063L147.333 8.65699ZM147.652 15.6589C147.652 13.9403 145.933 11.3304 143.069 10.7576C140.777 10.312 138.295 10.2483 136.003 10.6302C133.139 11.0758 131.165 13.5583 130.911 16.1681C130.593 19.1599 131.866 21.5151 134.603 22.8518C137.976 24.5704 141.414 24.3795 144.596 22.3426C146.633 21.0695 147.652 19.1599 147.652 15.6589Z" fill="#292F36"/>
<path d="M87.6894 16.1044C90.3628 18.5233 92.7817 20.8148 95.2642 23.0427C95.7098 23.4246 96.0917 23.8702 96.5373 24.1885C97.5557 25.0796 98.0013 26.0981 97.0465 27.1165C96.028 28.1987 94.9459 27.6894 93.9911 26.8619C93.9911 26.8619 87.7989 21.2498 84.6733 18.475L80.6875 21.3037C80.6875 21.3037 80.6875 24.492 80.6875 25.7014C80.6875 26.9109 80.1146 27.6894 78.8415 27.6894C77.5684 27.6894 76.9319 26.9611 76.9319 25.7798C76.9319 17.8867 76.9319 9.99365 76.8682 2.10057C76.8682 0.891146 77.4411 0 78.8415 0C80.2419 0 80.6875 1.01846 80.6875 2.22788C80.6875 6.17442 80.6875 10.121 80.6875 14.0675C80.6875 14.704 80.6875 15.4042 80.6875 16.55C84.5401 14.1167 91.8269 8.65693 91.8269 8.65693C93.1 7.76577 94.5074 5.73476 96.2826 7.63846C97.2588 8.7513 96.6646 9.67538 93.9275 11.6486C91.8905 13.1127 89.9173 14.5767 87.6257 16.2317L87.6894 16.1044Z" fill="#292F36"/>
<path d="M111.942 27.7532C104.813 27.5622 99.4657 22.4062 99.8476 16.0408C100.102 11.8397 103.412 8.02045 107.55 7.12929C108.759 6.87468 110.032 6.93834 110.16 8.27507C110.243 9.14915 109.922 10.1105 108.759 10.503C104.94 12.2216 103.158 14.5768 103.603 17.5685C104.112 21.0058 107.104 23.552 110.987 23.9976C116.716 24.6341 121.363 20.242 120.153 15.4043C119.58 13.0491 117.989 11.5851 115.761 10.7576C114.488 10.2483 113.406 9.6118 114.042 8.14776C114.679 6.62006 116.016 7.06564 117.225 7.44756C121.363 8.9116 124.163 12.8581 124.163 16.9956C124.163 21.3878 121.108 25.398 116.525 26.862C115.888 27.0835 114.308 27.7532 111.942 27.7532Z" fill="#292F36"/>
<path d="M3.53919 27.7532C2.13881 27.7532 1.24765 27.1803 1.24765 25.7799C1.24765 24.4432 2.26611 24.0613 3.53919 24.0613H16.2063C17.7977 23.934 18.8161 23.1065 18.8161 21.5788C18.8161 20.0511 17.6703 19.4145 16.2063 19.4145C12.8963 19.4145 9.58631 19.4782 6.27631 19.4145C1.37496 19.2236 -1.48946 14.1949 0.802078 10.1211C2.07515 7.82954 4.23938 6.93838 6.78554 6.87473C10.7321 6.81107 14.7423 6.87473 18.6888 6.87473C20.0255 6.87473 21.2986 7.193 21.2986 8.78434C21.2986 10.312 20.0892 10.694 18.7525 10.694C14.9332 10.694 11.114 10.694 7.23112 10.694C5.00323 10.694 3.79381 11.5851 3.79381 13.1765C3.79381 14.7041 5.06688 15.659 7.23112 15.659C10.2228 15.659 13.2146 15.659 16.2063 15.659C19.9619 15.659 22.5717 18.0142 22.6353 21.3242C22.699 24.8888 19.9791 27.6896 16.2872 27.7532H3.53919Z" fill="#22A791"/>
</svg>
