<svg width="904" height="904" viewBox="0 0 904 904" fill="none" xmlns="http://www.w3.org/2000/svg">
<path d="M652.889 0C719.488 0 783.359 26.4563 830.451 73.5487C877.544 120.641 904 184.512 904 251.111V652.889C904 719.488 877.544 783.359 830.451 830.451C783.359 877.544 719.488 904 652.889 904H251.111C184.512 904 120.641 877.544 73.5487 830.451C26.4563 783.359 0 719.488 0 652.889V251.111C0 184.512 26.4563 120.641 73.5487 73.5487C120.641 26.4563 184.512 0 251.111 0H652.889ZM452 251.111C398.721 251.111 347.624 272.276 309.95 309.95C272.276 347.624 251.111 398.721 251.111 452C251.111 505.279 272.276 556.376 309.95 594.05C347.624 631.724 398.721 652.889 452 652.889C505.279 652.889 556.376 631.724 594.05 594.05C631.724 556.376 652.889 505.279 652.889 452C652.889 398.721 631.724 347.624 594.05 309.95C556.376 272.276 505.279 251.111 452 251.111ZM452 351.556C478.64 351.556 504.188 362.138 523.025 380.975C541.862 399.812 552.444 425.36 552.444 452C552.444 478.64 541.862 504.188 523.025 523.025C504.188 541.862 478.64 552.444 452 552.444C425.36 552.444 399.812 541.862 380.975 523.025C362.138 504.188 351.556 478.64 351.556 452C351.556 425.36 362.138 399.812 380.975 380.975C399.812 362.138 425.36 351.556 452 351.556ZM678 175.778C664.68 175.778 651.906 181.069 642.488 190.488C633.069 199.906 627.778 212.68 627.778 226C627.778 239.32 633.069 252.094 642.488 261.512C651.906 270.931 664.68 276.222 678 276.222C691.32 276.222 704.094 270.931 713.513 261.512C722.931 252.094 728.222 239.32 728.222 226C728.222 212.68 722.931 199.906 713.513 190.488C704.094 181.069 691.32 175.778 678 175.778Z" fill="#1BC8AC"/>
</svg>
