<svg width="957" height="904" viewBox="0 0 957 904" fill="none" xmlns="http://www.w3.org/2000/svg">
<path d="M200.839 100.489C200.826 127.127 190.233 152.669 171.392 171.495C152.55 190.322 127.003 200.891 100.37 200.878C73.7366 200.864 48.1997 190.27 29.3768 171.424C10.5538 152.579 -0.0133039 127.027 1.25706e-05 100.389C0.0133291 73.7506 10.606 48.2089 29.4478 29.3824C48.2895 10.5558 73.837 -0.0133064 100.47 1.2573e-05C127.103 0.0133316 152.64 10.608 171.463 29.4534C190.286 48.2987 200.853 73.851 200.839 100.489ZM203.852 275.253H3.0126V904H203.852V275.253ZM521.178 275.253H321.343V904H519.17V574.058C519.17 390.255 758.671 373.181 758.671 574.058V904H957V505.76C957 195.906 602.518 207.456 519.17 359.621L521.178 275.253Z" fill="#1BC8AC"/>
</svg>
