<svg width="1168" height="895" viewBox="0 0 1168 895" fill="none" xmlns="http://www.w3.org/2000/svg">
<path d="M252.069 15.9039C247.196 10.9306 241.39 6.96644 234.984 4.238C228.578 1.50957 221.697 0.0703158 214.735 0.00251281C207.773 -0.0652902 200.865 1.23967 194.407 3.84283C187.949 6.44599 182.068 10.2963 177.098 15.1738C120.901 71.0816 76.3204 137.559 45.9257 210.775C15.5309 283.992 -0.0773215 362.5 0.000301737 441.776C-0.0821852 524.096 16.7485 605.555 49.4482 681.1C82.1479 756.644 130.019 824.663 190.092 880.937C200.204 890.286 213.561 895.325 227.327 894.984C241.094 894.643 254.185 888.949 263.822 879.112C286.89 856.04 284.043 819.316 261.851 798.07C213.635 752.112 175.265 696.828 149.075 635.578C122.884 574.328 109.42 508.392 109.5 441.776C109.5 306.998 163.593 184.778 251.339 95.8509C272.509 74.3127 274.699 38.5373 252.069 15.9039ZM380.622 144.622C371.008 134.728 357.864 129.05 344.072 128.831C330.279 128.612 316.961 133.87 307.038 143.454C267.532 182.431 236.175 228.881 214.794 280.098C193.413 331.315 182.435 386.275 182.5 441.776C182.5 565.311 235.79 676.36 320.689 753.168C330.717 762.012 343.764 766.657 357.124 766.14C370.484 765.624 383.132 759.985 392.448 750.393C416.392 726.446 411.939 688.772 389.455 667.599C358.645 638.615 334.102 603.623 317.341 564.783C300.579 525.944 291.955 484.08 292 441.776C292 357.814 325.361 281.591 379.6 225.664C400.478 204.199 403.909 167.84 380.622 144.622ZM787.378 144.549C796.992 134.655 810.136 128.977 823.928 128.758C837.721 128.539 851.039 133.797 860.962 143.381C900.477 182.367 931.839 228.828 953.221 280.058C974.602 331.288 985.575 386.262 985.5 441.776C985.5 565.311 932.21 676.36 847.311 753.168C837.283 762.012 824.236 766.657 810.876 766.14C797.516 765.624 784.867 759.985 775.552 750.393C751.608 726.446 756.061 688.772 778.545 667.599C809.354 638.615 833.898 603.623 850.659 564.783C867.421 525.944 876.045 484.08 876 441.776C876 357.814 842.639 281.591 788.4 225.664C767.522 204.199 764.091 167.767 787.378 144.549ZM915.931 15.9039C920.804 10.9306 926.61 6.96644 933.016 4.238C939.422 1.50957 946.303 0.0703158 953.265 0.00251281C960.227 -0.0652902 967.135 1.23967 973.593 3.84283C980.051 6.44599 985.932 10.2963 990.902 15.1738C1047.1 71.0816 1091.68 137.559 1122.07 210.775C1152.47 283.992 1168.08 362.5 1168 441.776C1168.08 524.096 1151.25 605.555 1118.55 681.1C1085.85 756.644 1037.98 824.663 977.908 880.937C967.796 890.286 954.439 895.325 940.673 894.984C926.906 894.643 913.815 888.949 904.178 879.112C881.11 856.04 883.957 819.316 906.222 798.07C954.425 752.105 992.781 696.819 1018.96 635.569C1045.14 574.32 1058.59 508.387 1058.5 441.776C1058.5 306.998 1004.41 184.778 916.661 95.8509C895.491 74.3127 893.301 38.5373 915.931 15.9039ZM584 332.26C554.959 332.26 527.107 343.798 506.572 364.337C486.037 384.875 474.5 412.731 474.5 441.776C474.5 470.822 486.037 498.678 506.572 519.216C527.107 539.754 554.959 551.293 584 551.293C613.041 551.293 640.893 539.754 661.428 519.216C681.963 498.678 693.5 470.822 693.5 441.776C693.5 412.731 681.963 384.875 661.428 364.337C640.893 343.798 613.041 332.26 584 332.26Z" fill="#1BC8AC"/>
</svg>
