<svg width="1164" height="905" viewBox="0 0 1164 905" fill="none" xmlns="http://www.w3.org/2000/svg">
<path d="M428.4 403.2C424 410 419.4 415 414.6 418.2C410.2 421 404 422.4 396 422.4C388 422.4 379.8 420.4 371.4 416.4C363 412.4 353.6 408.2 343.2 403.8C332.8 399 320.8 394.6 307.2 390.6C294 386.6 278.6 384.6 261 384.6C234.2 384.6 213.4 390.2 198.6 401.4C183.8 412.2 176.4 426.6 176.4 444.6C176.4 457 180.6 467.4 189 475.8C197.4 484.2 208.4 491.6 222 498C236 504 251.8 509.8 269.4 515.4C287 520.6 305 526.4 323.4 532.8C342.2 539.2 360.4 546.6 378 555C395.6 563.4 411.2 574 424.8 586.8C438.8 599.2 450 614.4 458.4 632.4C466.8 650 471 671.4 471 696.6C471 726.6 465.4 754.4 454.2 780C443.4 805.2 427.4 827 406.2 845.4C385 863.8 358.6 878.2 327 888.6C295.4 899 259 904.2 217.8 904.2C196.6 904.2 175.6 902.2 154.8 898.2C134 894.6 114.2 889.4 95.4 882.6C76.6 875.4 59 867.2 42.6 858C26.2 848.8 12 838.8 0 828L38.4 766.2C42.8 759 48.2 753.4 54.6 749.4C61.4 745.4 70 743.4 80.4 743.4C90.4 743.4 99.6 746 108 751.2C116.4 756 125.8 761.4 136.2 767.4C146.6 773 158.8 778.4 172.8 783.6C187.2 788.4 205 790.8 226.2 790.8C242.2 790.8 256 789 267.6 785.4C279.2 781.8 288.6 777 295.8 771C303 764.6 308.2 757.6 311.4 750C315 742 316.8 733.8 316.8 725.4C316.8 711.8 312.4 700.8 303.6 692.4C295.2 683.6 284 676 270 669.6C256.4 663.2 240.6 657.4 222.6 652.2C204.6 647 186.2 641.2 167.4 634.8C149 628.4 130.8 620.8 112.8 612C95.2 603.2 79.4 592.2 65.4 579C51.8 565.4 40.6 548.8 31.8 529.2C23.4 509.6 19.2 485.8 19.2 457.8C19.2 432.2 24.2 408 34.2 385.2C44.2 362 59.2 341.6 79.2 324C99.2 306.4 124 292.4 153.6 282C183.6 271.6 218.2 266.4 257.4 266.4C301.4 266.4 341.4 273.6 377.4 288C413.4 302.4 443 321.2 466.2 344.4L428.4 403.2Z" fill="#1BC8AC"/>
<path d="M740.259 0V507.6H767.859C778.259 507.6 786.459 506.2 792.459 503.4C798.459 500.2 804.459 494.6 810.459 486.6L947.259 304.2C954.059 295 961.659 288 970.059 283.2C978.859 278.4 989.859 276 1003.06 276H1154.26L976.659 501.6C962.659 520.4 946.459 535.2 928.059 546C937.259 552.4 945.259 559.8 952.059 568.2C958.859 576.6 965.459 586 971.859 596.4L1163.26 894.6H1014.46C1001.66 894.6 990.659 892.6 981.459 888.6C972.259 884.2 964.659 876.6 958.659 865.8L819.459 638.4C813.859 628.8 808.059 622.6 802.059 619.8C796.059 617 787.059 615.6 775.059 615.6H740.259V894.6H574.659V0H740.259Z" fill="#1BC8AC"/>
</svg>
