<svg width="822" height="895" viewBox="0 0 822 895" fill="none" xmlns="http://www.w3.org/2000/svg">
<path d="M152.445 578.052C157.798 533.512 175.973 508.576 210.223 483.013C259.231 448.391 320.446 467.974 320.446 467.974V351.793C335.332 351.407 350.22 352.295 364.937 354.44V503.956C364.937 503.956 303.739 484.373 254.734 519.013C220.502 544.558 202.288 569.515 196.955 614.055C196.788 638.24 201.303 669.854 222.101 697.19C216.957 694.539 211.716 691.52 206.377 688.133C160.566 657.214 152.222 610.833 152.445 578.052ZM617.706 136.968C583.993 99.8401 571.242 62.3535 566.635 36.0199H609.044C609.044 36.0199 600.588 105.067 662.214 172.969L663.07 173.882C646.459 163.382 631.228 150.988 617.706 136.968ZM822 242.231V388.742C822 388.742 767.885 386.612 727.837 376.371C671.913 362.047 635.971 340.082 635.971 340.082C635.971 340.082 611.143 324.42 609.136 323.328V625.869C609.136 642.715 604.547 684.784 590.552 719.871C572.283 765.774 544.092 795.901 538.907 802.059C538.907 802.059 504.619 842.785 444.127 870.213C389.601 894.953 341.726 894.327 327.416 894.953C327.416 894.953 244.661 898.247 170.193 849.608C154.09 838.885 139.059 826.744 125.293 813.336L125.665 813.605C200.151 862.244 282.888 858.95 282.888 858.95C297.218 858.324 345.089 858.95 399.598 834.21C460.036 806.786 494.378 766.06 494.378 766.06C499.509 759.901 527.83 729.771 546.024 683.854C559.981 648.784 564.608 606.695 564.608 589.852V287.346C566.615 288.454 591.426 304.117 591.426 304.117C591.426 304.117 627.388 326.103 683.308 340.406C723.374 350.646 777.475 352.777 777.475 352.777V237.971C795.984 242.142 811.763 243.271 822 242.231Z" fill="#1BC8AC" fill-opacity="0.35"/>
<path d="M777.475 237.971L777.489 352.739C777.489 352.739 723.387 350.609 683.322 340.371C627.402 326.048 591.439 304.082 591.439 304.082C591.439 304.082 566.629 288.42 564.622 287.308V589.886C564.622 606.733 560.032 648.818 546.037 683.889C527.769 729.809 499.577 759.936 494.392 766.094C494.392 766.094 460.087 806.82 399.612 834.248C345.103 858.988 297.232 858.361 282.902 858.988C282.902 858.988 200.165 862.282 125.679 813.643L125.307 813.374C117.443 805.718 110.041 797.639 103.136 789.171C79.3669 760.043 64.797 725.599 61.1356 715.771V715.647C55.2446 698.57 42.8674 657.555 44.5587 617.831C47.5507 547.746 72.0819 504.727 78.5679 493.949C95.7456 464.562 118.087 438.267 144.598 416.239C167.993 397.228 194.51 382.102 223.06 371.483C253.926 359.015 286.981 352.33 320.446 351.793V467.974C320.446 467.974 259.211 448.463 210.223 483.013C175.973 508.576 157.798 533.512 152.445 578.052C152.222 610.833 160.604 657.197 206.377 688.133C211.716 691.52 216.957 694.539 222.101 697.19C230.098 707.637 239.805 716.759 250.881 724.15C295.595 752.597 333.061 754.583 380.973 736.108C412.918 723.757 436.968 695.919 448.117 665.073C455.124 645.813 455.032 626.423 455.032 606.375V36.0199H566.536C571.146 62.3535 583.894 99.8401 617.606 136.968C631.132 150.988 646.363 163.382 662.97 173.882C667.878 178.984 692.967 204.208 725.172 219.693C741.828 227.697 759.367 233.83 777.475 237.971Z" fill="#1BC8AC"/>
<path d="M16.7572 680.095V680.185L19.524 687.72C19.2061 686.842 18.1779 684.174 16.7572 680.095Z" fill="#1BC8AC" fill-opacity="0.35"/>
<path d="M223.06 371.483C194.51 382.102 167.993 397.228 144.598 416.239C118.079 438.318 95.7453 464.666 78.5894 494.108C72.1035 504.851 47.5723 547.904 44.5802 617.989C42.889 657.713 55.2662 698.728 61.1572 715.806V715.929C64.874 725.671 79.3885 760.111 103.158 789.33C110.062 797.798 117.465 805.88 125.329 813.532C100.132 796.744 77.6606 776.452 58.6484 753.309C35.0834 724.435 20.5504 690.35 16.7593 680.288C16.7548 680.216 16.7528 680.164 16.7572 680.095L16.7593 679.947C10.8495 662.887 -1.5648 621.855 0.163455 582.079C3.15553 511.994 27.6871 468.975 34.173 458.198C51.3237 428.749 73.6605 402.398 100.184 380.326C123.574 361.307 150.092 346.182 178.647 335.569C196.459 328.45 215.015 323.201 233.993 319.907C262.591 315.098 291.803 314.678 320.539 318.671V351.789C287.042 352.316 253.954 359.004 223.06 371.483Z" fill="#1BC8AC" fill-opacity="0.35"/>
<path d="M566.635 36.0199L455.117 36.0185V606.392C455.117 626.44 455.117 645.775 448.206 665.09C436.944 695.919 412.987 723.754 381.059 736.108C333.133 754.655 295.667 752.597 250.97 724.15C239.873 716.79 230.116 707.716 222.091 697.296C260.17 716.862 294.252 716.522 336.475 700.198C368.386 687.844 392.378 660.006 403.602 629.163C410.627 609.9 410.534 590.513 410.534 570.479V0H564.505C564.505 0 562.789 14.1795 566.635 36.0199ZM777.482 206.23L777.475 237.971C759.401 233.824 741.886 227.69 725.261 219.692C693.056 204.207 667.974 178.984 663.07 173.882C668.762 177.483 674.66 180.757 680.75 183.691C719.908 202.524 758.47 208.145 777.482 206.23Z" fill="#1BC8AC" fill-opacity="0.35"/>
</svg>
