<svg width="1165" height="839" viewBox="0 0 1165 839" fill="none" xmlns="http://www.w3.org/2000/svg">
<path d="M10.1734 165.33C15.5211 82.3197 81.7144 17.2654 164.118 13.1492C283.444 7.18855 453.996 0 582.5 0C711.004 0 881.555 7.18855 1000.88 13.1492C1083.29 17.2654 1149.48 82.3197 1154.83 165.33C1159.95 244.858 1165 342.719 1165 419.5C1165 496.281 1159.95 594.142 1154.83 673.671C1149.48 756.682 1083.29 821.733 1000.88 825.853C881.555 831.81 711.004 839 582.5 839C453.996 839 283.444 831.81 164.118 825.853C81.7144 821.733 15.5211 756.682 10.1734 673.671C5.04944 594.142 0 496.281 0 419.5C0 342.719 5.04944 244.858 10.1734 165.33Z" fill="#1BC8AC"/>
<path d="M457.679 251.7V587.3L790.536 419.5L457.679 251.7Z" fill="white"/>
</svg>
