<svg width="1199" height="839" viewBox="0 0 1199 839" fill="none" xmlns="http://www.w3.org/2000/svg">
<path d="M479.6 599.286L790.74 419.5L479.6 239.714V599.286ZM1172.62 130.045C1180.42 158.211 1185.81 195.966 1189.41 243.909C1193.6 291.852 1195.4 333.203 1195.4 369.16L1199 419.5C1199 550.744 1189.41 647.229 1172.62 708.955C1157.63 762.891 1122.86 797.649 1068.91 812.631C1040.73 820.422 989.175 825.816 910.041 829.411C832.106 833.606 760.766 835.404 694.821 835.404L599.5 839C348.31 839 191.84 829.411 130.092 812.631C76.1365 797.649 41.3655 762.891 26.378 708.955C18.5845 680.789 13.189 643.034 9.59201 595.091C5.39551 547.148 3.597 505.797 3.597 469.84L0 419.5C0 288.256 9.592 191.771 26.378 130.045C41.3655 76.1093 76.1365 41.3507 130.092 26.3686C158.268 18.5779 209.825 13.1843 288.959 9.58856C366.894 5.39356 438.234 3.59571 504.179 3.59571L599.5 0C850.691 0 1007.16 9.58857 1068.91 26.3686C1122.86 41.3507 1157.63 76.1093 1172.62 130.045Z" fill="#1BC8AC"/>
</svg>
